{
  "accessors": [
    {
      "bufferView": 2,
      "componentType": 5126,
      "count": 22,
      "max": [
        -0.9638530015945435,
        9.259204864501953,
        0.855247974395752
      ],
      "min": [
        -11.609895706176758,
        -1.2581000328063965,
        -0.17317700386047363
      ],
      "type": "VEC3"
    },
    {
      "bufferView": 1,
      "componentType": 5126,
      "count": 22,
      "max": [
        0.0,
        0.0
      ],
      "min": [
        0.0,
        0.0
      ],
      "type": "VEC2"
    },
    {
      "bufferView": 0,
      "componentType": 5125,
      "count": 24,
      "type": "SCALAR"
    },
    {
      "bufferView": 2,
      "byteOffset": 264,
      "componentType": 5126,
      "count": 65532,
      "max": [
        19.094205856323242,
        16.589065551757813,
        4.188545227050781
      ],
      "min": [
        -13.833242416381836,
        -9.650666236877441,
        -0.19840200245380402
      ],
      "type": "VEC3"
    },
    {
      "bufferView": 2,
      "byteOffset": 786648,
      "componentType": 5126,
      "count": 65532,
      "max": [
        0.9999969005584717,
        0.999998927116394,
        0.9999984502792358
      ],
      "min": [
        -0.9999980926513672,
        -0.9999994039535522,
        -1.0
      ],
      "type": "VEC3"
    },
    {
      "bufferView": 1,
      "byteOffset": 176,
      "componentType": 5126,
      "count": 65532,
      "max": [
        0.999754011631012,
        0.9997559785842896
      ],
      "min": [
        0.00024399999529123306,
        0.0002479999966453761
      ],
      "type": "VEC2"
    },
    {
      "bufferView": 0,
      "byteOffset": 96,
      "componentType": 5125,
      "count": 317328,
      "type": "SCALAR"
    },
    {
      "bufferView": 2,
      "byteOffset": 1573032,
      "componentType": 5126,
      "count": 65532,
      "max": [
        11.08069133758545,
        16.589065551757813,
        4.83949613571167
      ],
      "min": [
        -13.923627853393555,
        -5.172347068786621,
        -0.19966399669647217
      ],
      "type": "VEC3"
    },
    {
      "bufferView": 2,
      "byteOffset": 2359416,
      "componentType": 5126,
      "count": 65532,
      "max": [
        0.9999686479568481,
        0.9999924898147583,
        0.9999949932098389
      ],
      "min": [
        -0.9999955892562866,
        -0.9999994039535522,
        -1.0
      ],
      "type": "VEC3"
    },
    {
      "bufferView": 1,
      "byteOffset": 524432,
      "componentType": 5126,
      "count": 65532,
      "max": [
        0.9996960163116455,
        0.9968259930610657
      ],
      "min": [
        0.00024399999529123306,
        0.00024900000425986946
      ],
      "type": "VEC2"
    },
    {
      "bufferView": 0,
      "byteOffset": 1269408,
      "componentType": 5125,
      "count": 286986,
      "type": "SCALAR"
    },
    {
      "bufferView": 2,
      "byteOffset": 3145800,
      "componentType": 5126,
      "count": 2523,
      "max": [
        10.880720138549805,
        2.63490891456604,
        4.573070049285889
      ],
      "min": [
        1.6688389778137207,
        -5.316094875335693,
        -0.19096900522708893
      ],
      "type": "VEC3"
    },
    {
      "bufferView": 2,
      "byteOffset": 3176076,
      "componentType": 5126,
      "count": 2523,
      "max": [
        0.9999454021453857,
        0.9998108744621277,
        0.9999709129333496
      ],
      "min": [
        -0.9998149275779724,
        -0.9971336126327515,
        -1.0
      ],
      "type": "VEC3"
    },
    {
      "bufferView": 1,
      "byteOffset": 1048688,
      "componentType": 5126,
      "count": 2523,
      "max": [
        0.9925010204315186,
        0.9891579747200012
      ],
      "min": [
        0.00024399999529123306,
        0.0005249999812804163
      ],
      "type": "VEC2"
    },
    {
      "bufferView": 0,
      "byteOffset": 2417352,
      "componentType": 5125,
      "count": 6708,
      "type": "SCALAR"
    }
  ],
  "asset": {
    "extras": {
      "author": "Dystopia (https://sketchfab.com/Dystopia)",
      "license": "CC-BY-4.0 (http://creativecommons.org/licenses/by/4.0/)",
      "source": "https://sketchfab.com/3d-models/olavinlinna-olafs-castle-7c5f6a4da3f24ce0b31443b9dd80d743",
      "title": "Olavinlinna - Olaf's Castle"
    },
    "generator": "Sketchfab-12.67.0",
    "version": "2.0"
  },
  "bufferViews": [
    {
      "buffer": 0,
      "byteLength": 2444184,
      "name": "floatBufferViews",
      "target": 34963
    },
    {
      "buffer": 0,
      "byteLength": 1068872,
      "byteOffset": 2444184,
      "byteStride": 8,
      "name": "floatBufferViews",
      "target": 34962
    },
    {
      "buffer": 0,
      "byteLength": 3206352,
      "byteOffset": 3513056,
      "byteStride": 12,
      "name": "floatBufferViews",
      "target": 34962
    }
  ],
  "buffers": [
    {
      "byteLength": 6719408,
      "uri": "scene.bin"
    }
  ],
  "images": [
    {
      "uri": "textures/Olafs_Castle_Model_Sketchfab_baseColor.jpeg"
    }
  ],
  "materials": [
    {
      "doubleSided": true,
      "name": "Olafs_Castle_Model_Sketchfab",
      "pbrMetallicRoughness": {
        "baseColorTexture": {
          "index": 0
        },
        "metallicFactor": 0.0
      }
    }
  ],
  "meshes": [
    {
      "name": "Object_0",
      "primitives": [
        {
          "attributes": {
            "POSITION": 0,
            "TEXCOORD_0": 1
          },
          "indices": 2,
          "material": 0,
          "mode": 1
        }
      ]
    },
    {
      "name": "Object_1",
      "primitives": [
        {
          "attributes": {
            "NORMAL": 4,
            "POSITION": 3,
            "TEXCOORD_0": 5
          },
          "indices": 6,
          "material": 0,
          "mode": 4
        }
      ]
    },
    {
      "name": "Object_2",
      "primitives": [
        {
          "attributes": {
            "NORMAL": 8,
            "POSITION": 7,
            "TEXCOORD_0": 9
          },
          "indices": 10,
          "material": 0,
          "mode": 4
        }
      ]
    },
    {
      "name": "Object_3",
      "primitives": [
        {
          "attributes": {
            "NORMAL": 12,
            "POSITION": 11,
            "TEXCOORD_0": 13
          },
          "indices": 14,
          "material": 0,
          "mode": 4
        }
      ]
    }
  ],
  "nodes": [
    {
      "children": [
        1
      ],
      "matrix": [
        1.0,
        0.0,
        0.0,
        0.0,
        0.0,
        2.220446049250313e-16,
        -1.0,
        0.0,
        0.0,
        1.0,
        2.220446049250313e-16,
        0.0,
        0.0,
        0.0,
        0.0,
        1.0
      ],
      "name": "Sketchfab_model"
    },
    {
      "children": [
        2,
        3,
        4,
        5
      ],
      "name": "Olaf's_Castle_Model_Sketchfab.obj.cleaner.materialmerger.gles"
    },
    {
      "mesh": 0,
      "name": "Object_2"
    },
    {
      "mesh": 1,
      "name": "Object_3"
    },
    {
      "mesh": 2,
      "name": "Object_4"
    },
    {
      "mesh": 3,
      "name": "Object_5"
    }
  ],
  "samplers": [
    {
      "magFilter": 9729,
      "minFilter": 9987,
      "wrapS": 10497,
      "wrapT": 10497
    }
  ],
  "scene": 0,
  "scenes": [
    {
      "name": "Sketchfab_Scene",
      "nodes": [
        0
      ]
    }
  ],
  "textures": [
    {
      "sampler": 0,
      "source": 0
    }
  ]
}
