{
  "accessors": [
    {
      "bufferView": 2,
      "componentType": 5126,
      "count": 44515,
      "max": [
        80.00070190429688,
        45.18619918823242,
        46.86009979248047
      ],
      "min": [
        17.234600067138672,
        -79.83290100097656,
        -1.0129599571228027
      ],
      "type": "VEC3"
    },
    {
      "bufferView": 2,
      "byteOffset": 534180,
      "componentType": 5126,
      "count": 44515,
      "max": [
        0.9999943971633911,
        0.9999192953109741,
        0.9999908208847046
      ],
      "min": [
        -0.9999911785125732,
        -0.9999039173126221,
        -0.998589277267456
      ],
      "type": "VEC3"
    },
    {
      "bufferView": 1,
      "componentType": 5126,
      "count": 44515,
      "max": [
        0.998337984085083,
        0.9987689852714539
      ],
      "min": [
        0.00018977599393110722,
        0.00018977400031872094
      ],
      "type": "VEC2"
    },
    {
      "bufferView": 0,
      "componentType": 5125,
      "count": 172455,
      "type": "SCALAR"
    },
    {
      "bufferView": 2,
      "byteOffset": 1068360,
      "componentType": 5126,
      "count": 64563,
      "max": [
        35.368499755859375,
        169.60198974609375,
        63.53990173339844
      ],
      "min": [
        -64.55889892578125,
        93.88419342041016,
        8.144189834594727
      ],
      "type": "VEC3"
    },
    {
      "bufferView": 2,
      "byteOffset": 1843116,
      "componentType": 5126,
      "count": 64563,
      "max": [
        0.999915361404419,
        0.9999691247940063,
        1.0
      ],
      "min": [
        -0.99996018409729,
        -0.9999303817749023,
        -0.9999090433120728
      ],
      "type": "VEC3"
    },
    {
      "bufferView": 1,
      "byteOffset": 356120,
      "componentType": 5126,
      "count": 64563,
      "max": [
        0.9983100295066833,
        0.9989129900932312
      ],
      "min": [
        0.00010680400009732693,
        0.00010680199920898303
      ],
      "type": "VEC2"
    },
    {
      "bufferView": 0,
      "byteOffset": 689820,
      "componentType": 5125,
      "count": 244629,
      "type": "SCALAR"
    },
    {
      "bufferView": 2,
      "byteOffset": 2617872,
      "componentType": 5126,
      "count": 53308,
      "max": [
        62.58010482788086,
        -83.63859558105469,
        42.79499816894531
      ],
      "min": [
        -57.43439865112305,
        -169.60899353027344,
        -4.861120223999023
      ],
      "type": "VEC3"
    },
    {
      "bufferView": 2,
      "byteOffset": 3257568,
      "componentType": 5126,
      "count": 53308,
      "max": [
        0.9996812343597412,
        0.9999803304672241,
        0.9999833106994629
      ],
      "min": [
        -0.9996689558029175,
        -0.9999916553497314,
        -0.9982679486274719
      ],
      "type": "VEC3"
    },
    {
      "bufferView": 1,
      "byteOffset": 872624,
      "componentType": 5126,
      "count": 53308,
      "max": [
        0.998324990272522,
        0.9988260269165039
      ],
      "min": [
        0.00012969199451617897,
        0.00012969800445716828
      ],
      "type": "VEC2"
    },
    {
      "bufferView": 0,
      "byteOffset": 1668336,
      "componentType": 5125,
      "count": 207369,
      "type": "SCALAR"
    },
    {
      "bufferView": 2,
      "byteOffset": 3897264,
      "componentType": 5126,
      "count": 40647,
      "max": [
        19.54199981689453,
        82.58079528808594,
        57.99259948730469
      ],
      "min": [
        -80.00370025634766,
        -35.12840270996094,
        -3.561919927597046
      ],
      "type": "VEC3"
    },
    {
      "bufferView": 2,
      "byteOffset": 4385028,
      "componentType": 5126,
      "count": 40647,
      "max": [
        0.9999916553497314,
        0.9999344348907471,
        0.9999866485595703
      ],
      "min": [
        -0.9999957084655762,
        -0.99997878074646,
        -0.9987414479255676
      ],
      "type": "VEC3"
    },
    {
      "bufferView": 1,
      "byteOffset": 1299088,
      "componentType": 5126,
      "count": 40647,
      "max": [
        0.9983260035514832,
        0.9988470077514648
      ],
      "min": [
        0.00014207900676410645,
        0.00014207500498741865
      ],
      "type": "VEC2"
    },
    {
      "bufferView": 0,
      "byteOffset": 2497812,
      "componentType": 5125,
      "count": 160500,
      "type": "SCALAR"
    },
    {
      "bufferView": 2,
      "byteOffset": 4872792,
      "componentType": 5126,
      "count": 48186,
      "max": [
        77.1666030883789,
        152.1230010986328,
        56.05870056152344
      ],
      "min": [
        11.609200477600098,
        32.755802154541016,
        -3.89424991607666
      ],
      "type": "VEC3"
    },
    {
      "bufferView": 2,
      "byteOffset": 5451024,
      "componentType": 5126,
      "count": 48186,
      "max": [
        0.9999170303344727,
        0.9995731115341187,
        0.9999319314956665
      ],
      "min": [
        -0.9995958805084229,
        -0.999966025352478,
        -0.9993802309036255
      ],
      "type": "VEC3"
    },
    {
      "bufferView": 1,
      "byteOffset": 1624264,
      "componentType": 5126,
      "count": 48186,
      "max": [
        0.9983590245246887,
        0.9988610148429871
      ],
      "min": [
        0.0001592619955772534,
        0.00015926000196486712
      ],
      "type": "VEC2"
    },
    {
      "bufferView": 0,
      "byteOffset": 3139812,
      "componentType": 5125,
      "count": 186450,
      "type": "SCALAR"
    },
    {
      "bufferView": 2,
      "byteOffset": 6029256,
      "componentType": 5126,
      "count": 38803,
      "max": [
        34.55419921875,
        103.23999786376953,
        69.8510971069336
      ],
      "min": [
        -70.75919342041016,
        14.657499313354492,
        1.487220048904419
      ],
      "type": "VEC3"
    },
    {
      "bufferView": 2,
      "byteOffset": 6494892,
      "componentType": 5126,
      "count": 38803,
      "max": [
        0.9999750852584839,
        0.9999953508377075,
        0.999993085861206
      ],
      "min": [
        -0.9999520778656006,
        -0.999988317489624,
        -0.9999244213104248
      ],
      "type": "VEC3"
    },
    {
      "bufferView": 1,
      "byteOffset": 2009752,
      "componentType": 5126,
      "count": 38803,
      "max": [
        0.9983689785003662,
        0.9988830089569092
      ],
      "min": [
        0.00012206799874547869,
        0.00012206700193928555
      ],
      "type": "VEC2"
    },
    {
      "bufferView": 0,
      "byteOffset": 3885612,
      "componentType": 5125,
      "count": 149928,
      "type": "SCALAR"
    },
    {
      "bufferView": 2,
      "byteOffset": 6960528,
      "componentType": 5126,
      "count": 43368,
      "max": [
        -20.0,
        -16.118900299072266,
        47.56679916381836
      ],
      "min": [
        -79.61399841308594,
        -119.92900085449219,
        -6.481359958648682
      ],
      "type": "VEC3"
    },
    {
      "bufferView": 2,
      "byteOffset": 7480944,
      "componentType": 5126,
      "count": 43368,
      "max": [
        0.9999750852584839,
        0.9998871088027954,
        0.9999932050704956
      ],
      "min": [
        -0.9998232126235962,
        -0.9998282194137573,
        -0.9975044131278992
      ],
      "type": "VEC3"
    },
    {
      "bufferView": 1,
      "byteOffset": 2320176,
      "componentType": 5126,
      "count": 43368,
      "max": [
        0.9983620047569275,
        0.9988409876823425
      ],
      "min": [
        0.0001602139964234084,
        0.0001602099946467206
      ],
      "type": "VEC2"
    },
    {
      "bufferView": 0,
      "byteOffset": 4485324,
      "componentType": 5125,
      "count": 170013,
      "type": "SCALAR"
    },
    {
      "bufferView": 2,
      "byteOffset": 8001360,
      "componentType": 5126,
      "count": 52185,
      "max": [
        70.7042007446289,
        9.110559463500977,
        52.7156982421875
      ],
      "min": [
        -22.954200744628906,
        -108.59200286865234,
        11.631099700927734
      ],
      "type": "VEC3"
    },
    {
      "bufferView": 2,
      "byteOffset": 8627580,
      "componentType": 5126,
      "count": 52185,
      "max": [
        0.9999560117721558,
        0.9999427795410156,
        0.9999873638153076
      ],
      "min": [
        -0.999893307685852,
        -0.9998985528945923,
        -0.9998750686645508
      ],
      "type": "VEC3"
    },
    {
      "bufferView": 1,
      "byteOffset": 2667120,
      "componentType": 5126,
      "count": 52185,
      "max": [
        0.9979339838027954,
        0.9987990260124207
      ],
      "min": [
        0.00017545999435242265,
        0.00017545600712765008
      ],
      "type": "VEC2"
    },
    {
      "bufferView": 0,
      "byteOffset": 5165376,
      "componentType": 5125,
      "count": 208656,
      "type": "SCALAR"
    },
    {
      "bufferView": 2,
      "byteOffset": 9253800,
      "componentType": 5126,
      "count": 3972,
      "max": [
        1.0000001192092896,
        1.0,
        1.0
      ],
      "min": [
        -1.0000001192092896,
        -1.0,
        -0.9999998807907104
      ],
      "type": "VEC3"
    },
    {
      "bufferView": 2,
      "byteOffset": 9301464,
      "componentType": 5126,
      "count": 3972,
      "max": [
        0.9939975738525391,
        0.9987956285476685,
        0.9939975738525391
      ],
      "min": [
        -0.9939975738525391,
        -0.9987956881523132,
        -0.9939975738525391
      ],
      "type": "VEC3"
    },
    {
      "bufferView": 1,
      "byteOffset": 3084600,
      "componentType": 5126,
      "count": 3972,
      "max": [
        1.0,
        1.0
      ],
      "min": [
        0.0,
        0.0
      ],
      "type": "VEC2"
    },
    {
      "bufferView": 0,
      "byteOffset": 6000000,
      "componentType": 5125,
      "count": 6126,
      "type": "SCALAR"
    }
  ],
  "asset": {
    "extras": {
      "author": "Shahriar Shahrabi (https://sketchfab.com/shahriyarshahrabi)",
      "license": "CC-BY-4.0 (http://creativecommons.org/licenses/by/4.0/)",
      "source": "https://sketchfab.com/3d-models/lanhoso-castle-015bbe27e1d04f0ca824f5a179b0f927",
      "title": "Lanhoso Castle"
    },
    "generator": "Sketchfab-12.68.0",
    "version": "2.0"
  },
  "bufferViews": [
    {
      "buffer": 0,
      "byteLength": 6024504,
      "name": "floatBufferViews",
      "target": 34963
    },
    {
      "buffer": 0,
      "byteLength": 3116376,
      "byteOffset": 6024504,
      "byteStride": 8,
      "name": "floatBufferViews",
      "target": 34962
    },
    {
      "buffer": 0,
      "byteLength": 9349128,
      "byteOffset": 9140880,
      "byteStride": 12,
      "name": "floatBufferViews",
      "target": 34962
    }
  ],
  "buffers": [
    {
      "byteLength": 18490008,
      "uri": "scene.bin"
    }
  ],
  "extensionsUsed": [
    "KHR_materials_unlit"
  ],
  "images": [
    {
      "uri": "textures/LanhosoCastle_Model_5_u1_v1_baseColor.jpeg"
    },
    {
      "uri": "textures/LanhosoCastle_Model_5_u2_v1_baseColor.jpeg"
    },
    {
      "uri": "textures/LanhosoCastle_Model_5_u3_v1_baseColor.jpeg"
    },
    {
      "uri": "textures/LanhosoCastle_Model_5_u1_v2_baseColor.jpeg"
    },
    {
      "uri": "textures/LanhosoCastle_Model_5_u2_v2_baseColor.jpeg"
    },
    {
      "uri": "textures/LanhosoCastle_Model_5_u3_v2_baseColor.jpeg"
    },
    {
      "uri": "textures/LanhosoCastle_Model_5_u1_v3_baseColor.jpeg"
    },
    {
      "uri": "textures/LanhosoCastle_Model_5_u2_v3_baseColor.jpeg"
    },
    {
      "uri": "textures/Material.001_baseColor.jpeg"
    }
  ],
  "materials": [
    {
      "extensions": {
        "KHR_materials_unlit": {}
      },
      "name": "LanhosoCastle_Model_5_u1_v1",
      "pbrMetallicRoughness": {
        "baseColorTexture": {
          "index": 0
        },
        "metallicFactor": 0.0
      }
    },
    {
      "extensions": {
        "KHR_materials_unlit": {}
      },
      "name": "LanhosoCastle_Model_5_u2_v1",
      "pbrMetallicRoughness": {
        "baseColorTexture": {
          "index": 1
        },
        "metallicFactor": 0.0
      }
    },
    {
      "extensions": {
        "KHR_materials_unlit": {}
      },
      "name": "LanhosoCastle_Model_5_u3_v1",
      "pbrMetallicRoughness": {
        "baseColorTexture": {
          "index": 2
        },
        "metallicFactor": 0.0
      }
    },
    {
      "extensions": {
        "KHR_materials_unlit": {}
      },
      "name": "LanhosoCastle_Model_5_u1_v2",
      "pbrMetallicRoughness": {
        "baseColorTexture": {
          "index": 3
        },
        "metallicFactor": 0.0
      }
    },
    {
      "extensions": {
        "KHR_materials_unlit": {}
      },
      "name": "LanhosoCastle_Model_5_u2_v2",
      "pbrMetallicRoughness": {
        "baseColorTexture": {
          "index": 4
        },
        "metallicFactor": 0.0
      }
    },
    {
      "extensions": {
        "KHR_materials_unlit": {}
      },
      "name": "LanhosoCastle_Model_5_u3_v2",
      "pbrMetallicRoughness": {
        "baseColorTexture": {
          "index": 5
        },
        "metallicFactor": 0.0
      }
    },
    {
      "extensions": {
        "KHR_materials_unlit": {}
      },
      "name": "LanhosoCastle_Model_5_u1_v3",
      "pbrMetallicRoughness": {
        "baseColorTexture": {
          "index": 6
        },
        "metallicFactor": 0.0
      }
    },
    {
      "extensions": {
        "KHR_materials_unlit": {}
      },
      "name": "LanhosoCastle_Model_5_u2_v3",
      "pbrMetallicRoughness": {
        "baseColorTexture": {
          "index": 7
        },
        "metallicFactor": 0.0
      }
    },
    {
      "extensions": {
        "KHR_materials_unlit": {}
      },
      "name": "Material.001",
      "pbrMetallicRoughness": {
        "baseColorTexture": {
          "index": 8
        },
        "metallicFactor": 0.0
      }
    }
  ],
  "meshes": [
    {
      "name": "LanhosoCastle_Model_5_LanhosoCastle_Model_5_u1_v1_0",
      "primitives": [
        {
          "attributes": {
            "NORMAL": 1,
            "POSITION": 0,
            "TEXCOORD_0": 2
          },
          "indices": 3,
          "material": 0,
          "mode": 4
        }
      ]
    },
    {
      "name": "LanhosoCastle_Model_5_LanhosoCastle_Model_5_u2_v1_0",
      "primitives": [
        {
          "attributes": {
            "NORMAL": 5,
            "POSITION": 4,
            "TEXCOORD_0": 6
          },
          "indices": 7,
          "material": 1,
          "mode": 4
        }
      ]
    },
    {
      "name": "LanhosoCastle_Model_5_LanhosoCastle_Model_5_u3_v1_0",
      "primitives": [
        {
          "attributes": {
            "NORMAL": 9,
            "POSITION": 8,
            "TEXCOORD_0": 10
          },
          "indices": 11,
          "material": 2,
          "mode": 4
        }
      ]
    },
    {
      "name": "LanhosoCastle_Model_5_LanhosoCastle_Model_5_u1_v2_0",
      "primitives": [
        {
          "attributes": {
            "NORMAL": 13,
            "POSITION": 12,
            "TEXCOORD_0": 14
          },
          "indices": 15,
          "material": 3,
          "mode": 4
        }
      ]
    },
    {
      "name": "LanhosoCastle_Model_5_LanhosoCastle_Model_5_u2_v2_0",
      "primitives": [
        {
          "attributes": {
            "NORMAL": 17,
            "POSITION": 16,
            "TEXCOORD_0": 18
          },
          "indices": 19,
          "material": 4,
          "mode": 4
        }
      ]
    },
    {
      "name": "LanhosoCastle_Model_5_LanhosoCastle_Model_5_u3_v2_0",
      "primitives": [
        {
          "attributes": {
            "NORMAL": 21,
            "POSITION": 20,
            "TEXCOORD_0": 22
          },
          "indices": 23,
          "material": 5,
          "mode": 4
        }
      ]
    },
    {
      "name": "LanhosoCastle_Model_5_LanhosoCastle_Model_5_u1_v3_0",
      "primitives": [
        {
          "attributes": {
            "NORMAL": 25,
            "POSITION": 24,
            "TEXCOORD_0": 26
          },
          "indices": 27,
          "material": 6,
          "mode": 4
        }
      ]
    },
    {
      "name": "LanhosoCastle_Model_5_LanhosoCastle_Model_5_u2_v3_0",
      "primitives": [
        {
          "attributes": {
            "NORMAL": 29,
            "POSITION": 28,
            "TEXCOORD_0": 30
          },
          "indices": 31,
          "material": 7,
          "mode": 4
        }
      ]
    },
    {
      "name": "Skybox_Material.001_0",
      "primitives": [
        {
          "attributes": {
            "NORMAL": 33,
            "POSITION": 32,
            "TEXCOORD_0": 34
          },
          "indices": 35,
          "material": 8,
          "mode": 4
        }
      ]
    }
  ],
  "nodes": [
    {
      "children": [
        1
      ],
      "matrix": [
        7.762529276078567e-05,
        0.0,
        0.0,
        0.0,
        0.0,
        1.7236277463258547e-20,
        -7.762529276078567e-05,
        0.0,
        0.0,
        7.762529276078567e-05,
        1.7236277463258547e-20,
        0.0,
        0.0,
        0.0,
        0.0,
        1.0
      ],
      "name": "Sketchfab_model"
    },
    {
      "children": [
        2
      ],
      "matrix": [
        1.0,
        0.0,
        0.0,
        0.0,
        0.0,
        0.0,
        1.0,
        0.0,
        0.0,
        -1.0,
        0.0,
        0.0,
        0.0,
        0.0,
        0.0,
        1.0
      ],
      "name": "LanhosoCastle_Model_5.fbx"
    },
    {
      "children": [
        3,
        12
      ],
      "name": "RootNode"
    },
    {
      "children": [
        4,
        5,
        6,
        7,
        8,
        9,
        10,
        11
      ],
      "matrix": [
        1.9470718837233392e-05,
        5.551115123125783e-15,
        99.99999999999812,
        0.0,
        99.99999999999802,
        -4.371139006309477e-06,
        -1.9470718864988967e-05,
        0.0,
        4.371138995207247e-06,
        99.99999999999993,
        -8.881784197001252e-13,
        0.0,
        0.0,
        0.0,
        0.0,
        1.0
      ],
      "name": "LanhosoCastle_Model_5"
    },
    {
      "mesh": 0,
      "name": "LanhosoCastle_Model_5_LanhosoCastle_Model_5_u1_v1_0"
    },
    {
      "mesh": 1,
      "name": "LanhosoCastle_Model_5_LanhosoCastle_Model_5_u2_v1_0"
    },
    {
      "mesh": 2,
      "name": "LanhosoCastle_Model_5_LanhosoCastle_Model_5_u3_v1_0"
    },
    {
      "mesh": 3,
      "name": "LanhosoCastle_Model_5_LanhosoCastle_Model_5_u1_v2_0"
    },
    {
      "mesh": 4,
      "name": "LanhosoCastle_Model_5_LanhosoCastle_Model_5_u2_v2_0"
    },
    {
      "mesh": 5,
      "name": "LanhosoCastle_Model_5_LanhosoCastle_Model_5_u3_v2_0"
    },
    {
      "mesh": 6,
      "name": "LanhosoCastle_Model_5_LanhosoCastle_Model_5_u1_v3_0"
    },
    {
      "mesh": 7,
      "name": "LanhosoCastle_Model_5_LanhosoCastle_Model_5_u2_v3_0"
    },
    {
      "children": [
        13
      ],
      "matrix": [
        -36313.21516339579,
        1.1733123539806275e-10,
        -26577.2535168125,
        0.0,
        0.0011617287967222484,
        44999.999999999956,
        -0.0015873010523941389,
        0.0,
        26577.253516812467,
        -0.0019670125642875925,
        -36313.215163395755,
        0.0,
        0.0,
        7433.39990234375,
        0.0,
        1.0
      ],
      "name": "Skybox"
    },
    {
      "mesh": 8,
      "name": "Skybox_Material.001_0"
    }
  ],
  "samplers": [
    {
      "magFilter": 9729,
      "minFilter": 9987,
      "wrapS": 10497,
      "wrapT": 10497
    }
  ],
  "scene": 0,
  "scenes": [
    {
      "name": "Sketchfab_Scene",
      "nodes": [
        0
      ]
    }
  ],
  "textures": [
    {
      "sampler": 0,
      "source": 0
    },
    {
      "sampler": 0,
      "source": 1
    },
    {
      "sampler": 0,
      "source": 2
    },
    {
      "sampler": 0,
      "source": 3
    },
    {
      "sampler": 0,
      "source": 4
    },
    {
      "sampler": 0,
      "source": 5
    },
    {
      "sampler": 0,
      "source": 6
    },
    {
      "sampler": 0,
      "source": 7
    },
    {
      "sampler": 0,
      "source": 8
    }
  ]
}
